<svg xmlns="http://www.w3.org/2000/svg" xmlns:xlink="http://www.w3.org/1999/xlink" width="500" zoomAndPan="magnify" viewBox="0 0 375 374.999991" height="500" preserveAspectRatio="xMidYMid meet" version="1.0"><defs><g/></defs><g fill="#000000" fill-opacity="1"><g transform="translate(152.591025, 281.600005)"><g><path d="M 30.375 0 L 22.59375 0 L 22.59375 -178.203125 L 75.296875 -178.203125 C 94.546875 -178.203125 109.523438 -173.894531 120.234375 -165.28125 C 130.941406 -156.664062 136.296875 -144.660156 136.296875 -129.265625 C 136.296875 -94.628906 113.875 -77.3125 69.03125 -77.3125 L 30.375 -77.3125 Z M 73.046875 -171.4375 L 30.375 -171.4375 L 30.375 -84.34375 L 69.28125 -84.34375 C 89.863281 -84.34375 104.878906 -87.851562 114.328125 -94.875 C 123.785156 -101.90625 128.515625 -113.285156 128.515625 -129.015625 C 128.515625 -143.566406 123.910156 -154.273438 114.703125 -161.140625 C 105.503906 -168.003906 91.617188 -171.4375 73.046875 -171.4375 Z M 73.046875 -171.4375 "/></g></g></g><g fill="#000000" fill-opacity="1"><g transform="translate(91.77812, 234.414579)"><g><path d="M 30.375 0 L 22.59375 0 L 22.59375 -178.203125 L 75.296875 -178.203125 C 94.546875 -178.203125 109.523438 -173.894531 120.234375 -165.28125 C 130.941406 -156.664062 136.296875 -144.660156 136.296875 -129.265625 C 136.296875 -94.628906 113.875 -77.3125 69.03125 -77.3125 L 30.375 -77.3125 Z M 73.046875 -171.4375 L 30.375 -171.4375 L 30.375 -84.34375 L 69.28125 -84.34375 C 89.863281 -84.34375 104.878906 -87.851562 114.328125 -94.875 C 123.785156 -101.90625 128.515625 -113.285156 128.515625 -129.015625 C 128.515625 -143.566406 123.910156 -154.273438 114.703125 -161.140625 C 105.503906 -168.003906 91.617188 -171.4375 73.046875 -171.4375 Z M 73.046875 -171.4375 "/></g></g></g></svg>