<svg xmlns="http://www.w3.org/2000/svg" xmlns:xlink="http://www.w3.org/1999/xlink" width="500" zoomAndPan="magnify" viewBox="0 0 375 374.999991" height="500" preserveAspectRatio="xMidYMid meet" version="1.0"><defs><g/></defs><g fill="#000000" fill-opacity="1"><g transform="translate(152.591025, 264.757471)"><g><path d="M 30.375 0 L 22.59375 0 L 22.59375 -178.203125 L 75.296875 -178.203125 C 94.546875 -178.203125 109.523438 -173.894531 120.234375 -165.28125 C 130.941406 -156.664062 136.296875 -144.660156 136.296875 -129.265625 C 136.296875 -94.628906 113.875 -77.3125 69.03125 -77.3125 L 30.375 -77.3125 Z M 73.046875 -171.4375 L 30.375 -171.4375 L 30.375 -84.34375 L 69.28125 -84.34375 C 89.863281 -84.34375 104.878906 -87.851562 114.328125 -94.875 C 123.785156 -101.90625 128.515625 -113.285156 128.515625 -129.015625 C 128.515625 -143.566406 123.910156 -154.273438 114.703125 -161.140625 C 105.503906 -168.003906 91.617188 -171.4375 73.046875 -171.4375 Z M 73.046875 -171.4375 "/></g></g></g><g fill="#000000" fill-opacity="1"><g transform="translate(81.887057, 299.633301)"><g><path d="M 4.0625 0 L 1.203125 0 L 1.203125 -12.78125 L 5.90625 -12.78125 C 7.707031 -12.78125 9.054688 -12.429688 9.953125 -11.734375 C 10.847656 -11.046875 11.296875 -10.039062 11.296875 -8.71875 C 11.296875 -7.394531 10.789062 -6.351562 9.78125 -5.59375 C 8.769531 -4.84375 7.347656 -4.46875 5.515625 -4.46875 L 4.0625 -4.46875 Z M 5.890625 -10.390625 L 4.0625 -10.390625 L 4.0625 -6.890625 L 5.65625 -6.890625 C 6.570312 -6.890625 7.253906 -7.023438 7.703125 -7.296875 C 8.148438 -7.578125 8.375 -8.035156 8.375 -8.671875 C 8.375 -9.304688 8.171875 -9.75 7.765625 -10 C 7.359375 -10.257812 6.734375 -10.390625 5.890625 -10.390625 Z M 5.890625 -10.390625 "/></g></g></g><g fill="#000000" fill-opacity="1"><g transform="translate(97.781605, 299.633301)"><g><path d="M 1.203125 0 L 1.203125 -12.78125 L 4.140625 -12.78125 L 4.140625 -7.71875 L 9.484375 -7.71875 L 9.484375 -12.78125 L 12.4375 -12.78125 L 12.4375 0 L 9.484375 0 L 9.484375 -5.140625 L 4.140625 -5.140625 L 4.140625 0 Z M 1.203125 0 "/></g></g></g><g fill="#000000" fill-opacity="1"><g transform="translate(115.800142, 299.633301)"><g><path d="M 1.203125 0 L 1.203125 -12.78125 L 4.140625 -12.78125 L 4.140625 0 Z M 1.203125 0 "/></g></g></g><g fill="#000000" fill-opacity="1"><g transform="translate(125.520704, 299.633301)"><g><path d="M 1.203125 0 L 1.203125 -12.78125 L 4.140625 -12.78125 L 4.140625 -2.578125 L 9.671875 -2.578125 L 9.484375 0 Z M 1.203125 0 "/></g></g></g><g fill="#000000" fill-opacity="1"><g transform="translate(139.471258, 299.633301)"><g><path d="M 1.203125 0 L 1.203125 -12.78125 L 4.140625 -12.78125 L 4.140625 0 Z M 1.203125 0 "/></g></g></g><g fill="#000000" fill-opacity="1"><g transform="translate(149.191823, 299.633301)"><g><path d="M 4.0625 0 L 1.203125 0 L 1.203125 -12.78125 L 5.90625 -12.78125 C 7.707031 -12.78125 9.054688 -12.429688 9.953125 -11.734375 C 10.847656 -11.046875 11.296875 -10.039062 11.296875 -8.71875 C 11.296875 -7.394531 10.789062 -6.351562 9.78125 -5.59375 C 8.769531 -4.84375 7.347656 -4.46875 5.515625 -4.46875 L 4.0625 -4.46875 Z M 5.890625 -10.390625 L 4.0625 -10.390625 L 4.0625 -6.890625 L 5.65625 -6.890625 C 6.570312 -6.890625 7.253906 -7.023438 7.703125 -7.296875 C 8.148438 -7.578125 8.375 -8.035156 8.375 -8.671875 C 8.375 -9.304688 8.171875 -9.75 7.765625 -10 C 7.359375 -10.257812 6.734375 -10.390625 5.890625 -10.390625 Z M 5.890625 -10.390625 "/></g></g></g><g fill="#000000" fill-opacity="1"><g transform="translate(165.086372, 299.633301)"><g><path d="M 4.0625 0 L 1.203125 0 L 1.203125 -12.78125 L 5.90625 -12.78125 C 7.707031 -12.78125 9.054688 -12.429688 9.953125 -11.734375 C 10.847656 -11.046875 11.296875 -10.039062 11.296875 -8.71875 C 11.296875 -7.394531 10.789062 -6.351562 9.78125 -5.59375 C 8.769531 -4.84375 7.347656 -4.46875 5.515625 -4.46875 L 4.0625 -4.46875 Z M 5.890625 -10.390625 L 4.0625 -10.390625 L 4.0625 -6.890625 L 5.65625 -6.890625 C 6.570312 -6.890625 7.253906 -7.023438 7.703125 -7.296875 C 8.148438 -7.578125 8.375 -8.035156 8.375 -8.671875 C 8.375 -9.304688 8.171875 -9.75 7.765625 -10 C 7.359375 -10.257812 6.734375 -10.390625 5.890625 -10.390625 Z M 5.890625 -10.390625 "/></g></g></g><g fill="#000000" fill-opacity="1"><g transform="translate(180.980916, 299.633301)"><g><path d="M 9.953125 -10.234375 L 4.09375 -10.234375 L 4.09375 -7.703125 L 9.578125 -7.703125 L 9.578125 -5.171875 L 4.09375 -5.171875 L 4.09375 -2.53125 L 10.140625 -2.53125 L 9.953125 0 L 1.203125 0 L 1.203125 -12.78125 L 9.953125 -12.78125 Z M 9.953125 -10.234375 "/></g></g></g><g fill="#000000" fill-opacity="1"><g transform="translate(195.777473, 299.633301)"><g/></g></g><g fill="#000000" fill-opacity="1"><g transform="translate(204.688049, 299.633301)"><g><path d="M 4.0625 0 L 1.203125 0 L 1.203125 -12.78125 L 5.90625 -12.78125 C 7.707031 -12.78125 9.054688 -12.429688 9.953125 -11.734375 C 10.847656 -11.046875 11.296875 -10.039062 11.296875 -8.71875 C 11.296875 -7.394531 10.789062 -6.351562 9.78125 -5.59375 C 8.769531 -4.84375 7.347656 -4.46875 5.515625 -4.46875 L 4.0625 -4.46875 Z M 5.890625 -10.390625 L 4.0625 -10.390625 L 4.0625 -6.890625 L 5.65625 -6.890625 C 6.570312 -6.890625 7.253906 -7.023438 7.703125 -7.296875 C 8.148438 -7.578125 8.375 -8.035156 8.375 -8.671875 C 8.375 -9.304688 8.171875 -9.75 7.765625 -10 C 7.359375 -10.257812 6.734375 -10.390625 5.890625 -10.390625 Z M 5.890625 -10.390625 "/></g></g></g><g fill="#000000" fill-opacity="1"><g transform="translate(220.582598, 299.633301)"><g><path d="M 7.09375 0.1875 C 5.75 0.195312 4.597656 -0.046875 3.640625 -0.546875 C 2.679688 -1.054688 1.941406 -1.785156 1.421875 -2.734375 C 0.898438 -3.679688 0.640625 -4.820312 0.640625 -6.15625 C 0.640625 -7.488281 0.910156 -8.664062 1.453125 -9.6875 C 2.003906 -10.71875 2.78125 -11.519531 3.78125 -12.09375 C 4.78125 -12.664062 5.960938 -12.953125 7.328125 -12.953125 C 8.535156 -12.953125 9.59375 -12.6875 10.5 -12.15625 C 11.414062 -11.632812 12.128906 -10.898438 12.640625 -9.953125 C 13.148438 -9.015625 13.40625 -7.910156 13.40625 -6.640625 C 13.40625 -5.273438 13.132812 -4.082031 12.59375 -3.0625 C 12.0625 -2.039062 11.316406 -1.25 10.359375 -0.6875 C 9.398438 -0.125 8.3125 0.164062 7.09375 0.1875 Z M 6.984375 -2.4375 C 8.003906 -2.4375 8.832031 -2.800781 9.46875 -3.53125 C 10.101562 -4.269531 10.421875 -5.296875 10.421875 -6.609375 C 10.421875 -7.742188 10.128906 -8.648438 9.546875 -9.328125 C 8.972656 -10.003906 8.203125 -10.34375 7.234375 -10.34375 C 6.523438 -10.34375 5.898438 -10.171875 5.359375 -9.828125 C 4.816406 -9.484375 4.394531 -9 4.09375 -8.375 C 3.789062 -7.757812 3.640625 -7.035156 3.640625 -6.203125 C 3.640625 -5.003906 3.9375 -4.078125 4.53125 -3.421875 C 5.125 -2.765625 5.941406 -2.4375 6.984375 -2.4375 Z M 6.984375 -2.4375 "/></g></g></g><g fill="#000000" fill-opacity="1"><g transform="translate(239.015138, 299.633301)"><g><path d="M 4.0625 0 L 1.203125 0 L 1.203125 -12.78125 L 5.90625 -12.78125 C 7.707031 -12.78125 9.054688 -12.429688 9.953125 -11.734375 C 10.847656 -11.046875 11.296875 -10.039062 11.296875 -8.71875 C 11.296875 -7.394531 10.789062 -6.351562 9.78125 -5.59375 C 8.769531 -4.84375 7.347656 -4.46875 5.515625 -4.46875 L 4.0625 -4.46875 Z M 5.890625 -10.390625 L 4.0625 -10.390625 L 4.0625 -6.890625 L 5.65625 -6.890625 C 6.570312 -6.890625 7.253906 -7.023438 7.703125 -7.296875 C 8.148438 -7.578125 8.375 -8.035156 8.375 -8.671875 C 8.375 -9.304688 8.171875 -9.75 7.765625 -10 C 7.359375 -10.257812 6.734375 -10.390625 5.890625 -10.390625 Z M 5.890625 -10.390625 "/></g></g></g><g fill="#000000" fill-opacity="1"><g transform="translate(254.909687, 299.633301)"><g><path d="M 1.203125 0 L 1.203125 -12.78125 L 4.140625 -12.78125 L 4.140625 0 Z M 1.203125 0 "/></g></g></g><g fill="#000000" fill-opacity="1"><g transform="translate(264.630252, 299.633301)"><g><path d="M 9.953125 -10.234375 L 4.09375 -10.234375 L 4.09375 -7.703125 L 9.578125 -7.703125 L 9.578125 -5.171875 L 4.09375 -5.171875 L 4.09375 -2.53125 L 10.140625 -2.53125 L 9.953125 0 L 1.203125 0 L 1.203125 -12.78125 L 9.953125 -12.78125 Z M 9.953125 -10.234375 "/></g></g></g><g fill="#000000" fill-opacity="1"><g transform="translate(279.42681, 299.633301)"><g><path d="M 9.578125 -12.78125 L 12.484375 -12.78125 L 12.53125 -5.875 C 12.53125 -4.65625 12.300781 -3.585938 11.84375 -2.671875 C 11.382812 -1.765625 10.734375 -1.0625 9.890625 -0.5625 C 9.054688 -0.0625 8.070312 0.1875 6.9375 0.1875 C 5.039062 0.1875 3.601562 -0.28125 2.625 -1.21875 C 1.644531 -2.15625 1.15625 -3.554688 1.15625 -5.421875 L 1.15625 -12.78125 L 4.09375 -12.78125 L 4.09375 -5.65625 C 4.09375 -4.507812 4.335938 -3.6875 4.828125 -3.1875 C 5.316406 -2.6875 6.003906 -2.4375 6.890625 -2.4375 C 7.765625 -2.4375 8.4375 -2.722656 8.90625 -3.296875 C 9.382812 -3.878906 9.617188 -4.789062 9.609375 -6.03125 Z M 9.578125 -12.78125 "/></g></g></g><g fill="#000000" fill-opacity="1"><g transform="translate(297.463338, 299.633301)"><g><path d="M 1.203125 0 L 1.203125 -12.78125 L 4.140625 -12.78125 L 4.140625 -2.578125 L 9.671875 -2.578125 L 9.484375 0 Z M 1.203125 0 "/></g></g></g><g fill="#000000" fill-opacity="1"><g transform="translate(91.77812, 217.572046)"><g><path d="M 30.375 0 L 22.59375 0 L 22.59375 -178.203125 L 75.296875 -178.203125 C 94.546875 -178.203125 109.523438 -173.894531 120.234375 -165.28125 C 130.941406 -156.664062 136.296875 -144.660156 136.296875 -129.265625 C 136.296875 -94.628906 113.875 -77.3125 69.03125 -77.3125 L 30.375 -77.3125 Z M 73.046875 -171.4375 L 30.375 -171.4375 L 30.375 -84.34375 L 69.28125 -84.34375 C 89.863281 -84.34375 104.878906 -87.851562 114.328125 -94.875 C 123.785156 -101.90625 128.515625 -113.285156 128.515625 -129.015625 C 128.515625 -143.566406 123.910156 -154.273438 114.703125 -161.140625 C 105.503906 -168.003906 91.617188 -171.4375 73.046875 -171.4375 Z M 73.046875 -171.4375 "/></g></g></g></svg>